<?xml version="1.0" encoding="UTF-8"?>
<svg width="1440px" height="264px" viewBox="0 0 1440 264" version="1.1" xmlns="http://www.w3.org/2000/svg" xmlns:xlink="http://www.w3.org/1999/xlink">
    <!-- Generator: Sketch 61.2 (89653) - https://sketch.com -->
    <title>Group</title>
    <desc>Created with Sketch.</desc>
    <g id="Page-1" stroke="none" stroke-width="1" fill="none" fill-rule="evenodd">
        <g id="Desktop-HD">
            <g id="Group" transform="translate(-270.645315, -50.000000)">
                <polygon id="Polygon" fill="#4D87C6" points="1100.64532 0 1178.5876 45 1178.5876 135 1100.64532 180 1022.70303 135 1022.70303 45"></polygon>
                <polygon id="Polygon-Copy-6" fill="#264362" points="1178.64532 134 1256.5876 179 1256.5876 269 1178.64532 314 1100.70303 269 1100.70303 179"></polygon>
                <polygon id="Polygon-Copy-12" fill="#9CBCDF" points="1022.64532 134 1100.5876 179 1100.5876 269 1022.64532 314 944.703029 269 944.703029 179"></polygon>
                <polygon id="Polygon-Copy-2" fill="#9CBCDF" points="1411.64532 0 1489.5876 45 1489.5876 135 1411.64532 180 1333.70303 135 1333.70303 45"></polygon>
                <polygon id="Polygon-Copy-7" fill="#4D87C6" points="1489.64532 134 1567.5876 179 1567.5876 269 1489.64532 314 1411.70303 269 1411.70303 179"></polygon>
                <polygon id="Polygon-Copy-4" fill="#264362" points="1722.64532 0 1800.5876 45 1800.5876 135 1722.64532 180 1644.70303 135 1644.70303 45"></polygon>
                <polygon id="Polygon-Copy" fill="#E3ECF6" points="1255.64532 0 1333.5876 45 1333.5876 135 1255.64532 180 1177.70303 135 1177.70303 45"></polygon>
                <polygon id="Polygon-Copy-9" fill="#396594" points="1333.64532 134 1411.5876 179 1411.5876 269 1333.64532 314 1255.70303 269 1255.70303 179"></polygon>
                <polygon id="Polygon-Copy-3" fill="#396594" points="1566.64532 0 1644.5876 45 1644.5876 135 1566.64532 180 1488.70303 135 1488.70303 45"></polygon>
                <polygon id="Polygon-Copy-10" fill="#E3ECF6" points="1644.64532 134 1722.5876 179 1722.5876 269 1644.64532 314 1566.70303 269 1566.70303 179"></polygon>
                <polygon id="Polygon-Copy-6" fill="#264362" points="246 134 323.942286 179 323.942286 269 246 314 168.057714 269 168.057714 179"></polygon>
                <polygon id="Polygon-Copy-2" fill="#9CBCDF" points="479 0 556.942286 45 556.942286 135 479 180 401.057714 135 401.057714 45"></polygon>
                <polygon id="Polygon-Copy-7" fill="#4D87C6" points="557 134 634.942286 179 634.942286 269 557 314 479.057714 269 479.057714 179"></polygon>
                <polygon id="Polygon-Copy-4" fill="#264362" points="790 0 867.942286 45 867.942286 135 790 180 712.057714 135 712.057714 45"></polygon>
                <polygon id="Polygon-Copy-8" fill="#4D87C6" points="868 134 945.942286 179 945.942286 269 868 314 790.057714 269 790.057714 179"></polygon>
                <polygon id="Polygon-Copy" fill="#E3ECF6" points="323 0 400.942286 45 400.942286 135 323 180 245.057714 135 245.057714 45"></polygon>
                <polygon id="Polygon-Copy-9" fill="#396594" points="401 134 478.942286 179 478.942286 269 401 314 323.057714 269 323.057714 179"></polygon>
                <polygon id="Polygon-Copy-3" fill="#396594" points="634 0 711.942286 45 711.942286 135 634 180 556.057714 135 556.057714 45"></polygon>
                <polygon id="Polygon-Copy-10" fill="#E3ECF6" points="712 134 789.942286 179 789.942286 269 712 314 634.057714 269 634.057714 179"></polygon>
                <polygon id="Polygon-Copy-5" fill="#9CBCDF" points="945 0 1022.94229 45 1022.94229 135 945 180 867.057714 135 867.057714 45"></polygon>
                <polygon id="Polygon-Copy-11" fill="#E3ECF6" points="1023 134 1100.94229 179 1100.94229 269 1023 314 945.057714 269 945.057714 179"></polygon>
            </g>
        </g>
    </g>
</svg>