<?xml version="1.0" encoding="UTF-8"?>
<svg width="1440px" height="366px" viewBox="0 0 1440 366" version="1.1" xmlns="http://www.w3.org/2000/svg" xmlns:xlink="http://www.w3.org/1999/xlink">
    <!-- Generator: Sketch 61.2 (89653) - https://sketch.com -->
    <title>Group</title>
    <desc>Created with Sketch.</desc>
    <g id="Page-1" stroke="none" stroke-width="1" fill="none" fill-rule="evenodd">
        <g id="Desktop-HD">
            <g id="Group" transform="translate(0.000000, -0.000000)">
                <polygon id="Rectangle-Copy" fill="#E3ECF6" points="156 1.42108547e-14 312 1.42108547e-14 287.409179 219.497163 131.403881 146.11396"></polygon>
                <polygon id="Rectangle-Copy-2" fill="#E3ECF6" transform="translate(433.000000, 98.500596) scale(-1, 1) translate(-433.000000, -98.500596) " points="344.958962 1.42108547e-14 554 1.42108547e-14 497.691853 197.001193 312 146.75"></polygon>
                <polygon id="Rectangle-Copy-7" fill="#E3ECF6" transform="translate(1256.814631, 83.868684) scale(-1, 1) translate(-1256.814631, -83.868684) " points="1220.22935 1.42108547e-14 1342.79132 1.42108547e-14 1269.00484 146.11396 1170.83794 167.737368"></polygon>
                <polygon id="Rectangle-Copy-3" fill="#D6E2F0" transform="translate(651.041038, 90.691533) scale(-1, 1) translate(-651.041038, -90.691533) " points="521.041038 1.42108547e-14 781.041038 1.42108547e-14 748.082075 146.75 650.015279 181.383065"></polygon>
                <polygon id="Rectangle-Copy-12" fill="#D6E2F0" transform="translate(461.154074, 214.750298) scale(-1, 1) translate(-461.154074, -214.750298) " points="368.308147 146.75 554 197.001193 513.360544 282.750596 418.159746 241.324759"></polygon>
                <polygon id="Rectangle-Copy-5" fill="#D6E2F0" transform="translate(958.398406, 123.000000) scale(-1, 1) translate(-958.398406, -123.000000) " points="1004.77105 1.42108547e-14 1075.12741 1.42108547e-14 1004.77105 181.383065 841.6694 246"></polygon>
                <polygon id="Rectangle-Copy-16" fill="#D6E2F0" transform="translate(1112.527008, 197.397337) scale(-1, 1) translate(-1112.527008, -197.397337) " points="1107.68433 123 1149.9266 245.250596 1149.9266 271.794673 1075.12741 245.250596"></polygon>
                <polygon id="Rectangle-Copy-17" fill="#E3ECF6" transform="translate(1180.997054, 193.215620) scale(-1, 1) translate(-1180.997054, -193.215620) " points="1117.36968 146.11396 1244.62443 123 1212.0675 245.250596 1147.5516 263.43124"></polygon>
                <polygon id="Rectangle-Copy-18" fill="#D6E2F0" transform="translate(1278.616916, 204.772600) scale(-1, 1) translate(-1278.616916, -204.772600) " points="1214.44251 167.737368 1312.60941 146.11396 1342.79132 263.43124 1233.90451 218.733878"></polygon>
                <polygon id="Rectangle-Copy-14" fill="#D6E2F0" transform="translate(781.533398, 226.588869) scale(-1, 1) translate(-781.533398, -226.588869) " points="651.041038 181.383065 912.025759 181.383065 831.541961 271.794673 678.185061 232.756497"></polygon>
                <polygon id="Rectangle-Copy-4" fill="#E3ECF6" transform="translate(782.046278, 90.691533) scale(-1, 1) translate(-782.046278, -90.691533) " points="722.423156 1.42108547e-14 783.092555 1.42108547e-14 912.025759 181.383065 652.066797 181.383065"></polygon>
                <polygon id="Rectangle-Copy-6" fill="#E3ECF6" transform="translate(1014.697720, 123.000000) scale(-1, 1) translate(-1014.697720, -123.000000) " points="918.06838 1.42108547e-14 1117.36968 1.42108547e-14 954.268028 246 912.025759 123"></polygon>
                <polygon id="Rectangle" fill="#D6E2F0" points="312 0 368.308147 197.001193 337.20459 293.5 287.169821 219.497163"></polygon>
                <polygon id="Rectangle-Copy-9" fill="#D6E2F0" points="1111.32706 1.99146255e-15 1170.83794 1.42108547e-14 1244.62443 146.11396 1117.36968 123"></polygon>
                <polygon id="Rectangle" fill="#D6E2F0" points="0 1.42108547e-14 156 1.42108547e-14 131.403881 146.11396 0 246"></polygon>
                <polygon id="Rectangle-Copy-10" fill="#D6E2F0" points="131.403881 146.11396 287.169821 219.279577 262.403881 365.11396 131 351.754084"></polygon>
                <polygon id="Rectangle-Copy-8" fill="#D6E2F0" transform="translate(1366.699956, 123.000000) scale(-1, 1) translate(-1366.699956, -123.000000) " points="1293.39991 4.95020691e-14 1440 1.36557432e-14 1390.60859 167.737368 1293.39991 246"></polygon>
                <polygon id="Rectangle" fill="#E3ECF6" points="4.3298698e-14 246 131.403881 146.11396 131 351.754084 -3.33066907e-16 327.088115"></polygon>
                <polygon id="Rectangle" fill="#E3ECF6" points="287.169821 219.279577 337.20459 293.5 262.403881 365.11396"></polygon>
                <polygon id="Rectangle-Copy-11" fill="#E3ECF6" points="368.308147 197.001193 408.947603 282.750596 337.20459 293.5"></polygon>
                <polygon id="Rectangle-Copy-13" fill="#E3ECF6" points="554 146.75 652.066797 181.383065 731.524835 271.794673 504.148402 241.324759"></polygon>
                <polygon id="Rectangle-Copy-15" fill="#E3ECF6" points="912.025759 181.383065 1075.12741 246 1075.12741 271.794673 884.881736 232.756497"></polygon>
                <polygon id="Rectangle-Copy-19" fill="#E3ECF6" transform="translate(1381.664662, 247.412742) scale(-1, 1) translate(-1381.664662, -247.412742) " points="1323.32932 246 1420.538 167.737368 1440 218.733878 1323.32932 327.088115"></polygon>
            </g>
        </g>
    </g>
</svg>